<?xml version="1.0" encoding="utf-8"?>
<!-- Generator: Adobe Illustrator 23.0.6, SVG Export Plug-In . SVG Version: 6.00 Build 0)  -->
<svg version="1.1" id="Capa_1" xmlns="http://www.w3.org/2000/svg" xmlns:xlink="http://www.w3.org/1999/xlink" x="0px" y="0px"
	 viewBox="0 0 27.9 23.2" style="enable-background:new 0 0 27.9 23.2;" xml:space="preserve">
<style type="text/css">
	.st0{fill:#FF0000;}
</style>
<path class="st0" d="M25.9,2.7C24.5,1,22.3,0,20.1,0c-2.6,0-4.8,1.2-6.2,3.4C12.5,1.2,10.3,0,7.7,0C5.4,0,3.3,1,1.9,2.7
	c-0.8,1-2.5,3.6-1.7,7.4c0.7,3.3,3.6,8.2,13.4,13.1c0.1,0.1,0.3,0.1,0.4,0.1s0.3,0,0.4-0.1c9.8-4.9,12.7-9.8,13.4-13.1
	C28.4,6.2,26.6,3.6,25.9,2.7z M25.6,9.6c-0.6,2.8-3.1,7.1-11.8,11.5C5.1,16.7,2.5,12.4,2,9.6c-0.6-3,0.7-5,1.3-5.7
	C4.3,2.7,5.9,2,7.6,2c1.1,0,4,0.4,5.3,4c0.1,0.4,0.5,0.6,0.9,0.6s0.8-0.3,0.9-0.6C16,2.4,18.8,2,20,2c1.7,0,3.3,0.7,4.3,1.9
	C24.9,4.7,26.3,6.7,25.6,9.6z"/>
</svg>
