<?xml version="1.0" encoding="UTF-8" standalone="no"?>
<!-- Created with Inkscape (http://www.inkscape.org/) -->
<svg
   xmlns:svg="http://www.w3.org/2000/svg"
   xmlns="http://www.w3.org/2000/svg"
   xmlns:xlink="http://www.w3.org/1999/xlink"
   xmlns:inkscape="http://www.inkscape.org/namespaces/inkscape"
   version="1.0"
   width="250"
   height="130"
   id="svg2">
  <defs
     id="defs4">
    <linearGradient
       id="linearGradient3288">
      <stop
         style="stop-color:#10238d;stop-opacity:1"
         offset="0"
         id="stop3290" />
      <stop
         style="stop-color:#0162f8;stop-opacity:1"
         offset="1"
         id="stop3292" />
    </linearGradient>
    <filter
       id="filter3262">
      <feGaussianBlur
         id="feGaussianBlur3264"
         stdDeviation="1.3651274"
         inkscape:collect="always" />
    </filter>
    <linearGradient
       x1="135.04541"
       y1="2.9950542"
       x2="135.04541"
       y2="117.17167"
       id="linearGradient3294"
       xlink:href="#linearGradient3288"
       gradientUnits="userSpaceOnUse"
       gradientTransform="translate(0,3.5355341)" />
  </defs>
  <g
     style="display:inline"
     id="layer1">
    <path
       d="M 11.071429,65.321246 C 101.64438,116.72568 140.23784,44.023665 237.5,66.035532 C 155.86174,37.214764 95.007449,112.85487 15,63.535532 L 11.071429,65.321246 z "
       style="opacity:1;color:#000000;fill:#f22b92;fill-opacity:1;fill-rule:evenodd;stroke:none;stroke-width:0.40000001;stroke-linecap:butt;stroke-linejoin:miter;marker:none;marker-start:none;marker-mid:none;marker-end:none;stroke-miterlimit:4;stroke-dasharray:none;stroke-dashoffset:0;stroke-opacity:1;visibility:visible;display:inline;overflow:visible;enable-background:accumulate"
       id="path3266" />
    <path
       d="M 102.4375,-1.53125 C 100.27225,-1.6420528 97.738626,-0.68266906 96.125,1.125 C 95.251511,2.0984134 94.839907,3.4010532 94.995497,4.6996323 C 95.151087,5.9982114 95.858777,7.1667422 96.9375,7.90625 C 96.855035,8.1204266 96.917426,7.9177806 96.71875,8.25 C 96.686062,8.3117706 96.654804,8.3742872 96.625,8.4375 C 94.924822,11.571161 93.253311,15.44364 91.59375,19.25 C 91.462998,18.444234 91.117558,17.688583 90.59375,17.0625 C 88.161499,14.215592 84.33537,11.410536 79.5,11.5 C 78.882648,11.511422 78.185794,11.556192 77.40625,11.6875 C 75.83952,11.949819 74.523598,13.011428 73.935833,14.487229 C 73.348069,15.963029 73.57384,17.638646 74.53125,18.90625 L 75.84375,20.65625 C 71.881817,30.520644 67.055301,39.444357 59.65625,46.78125 C 57.884229,45.019431 55.022021,45.019431 53.25,46.78125 C 53.858278,46.18001 53.511131,46.614072 52.4375,46.78125 C 51.363869,46.948428 49.729043,47.018173 47.875,47.03125 C 46.453236,47.041278 44.83869,47.017043 43.25,47 L 50.8125,31.09375 C 51.485416,29.692394 51.895364,29.193634 52.09375,29.03125 C 52.292136,28.868866 52.602999,28.585067 54.375,28.5 C 54.458318,28.502293 54.541682,28.502293 54.625,28.5 L 70.03125,26.875 C 71.682131,26.705311 73.10912,25.648931 73.753422,24.119527 C 74.397724,22.590123 74.156803,20.831091 73.125,19.53125 L 69.34375,14.71875 C 67.789243,12.753394 64.936937,12.417829 62.96875,13.96875 C 60.62272,15.817098 53.009777,16.066547 46.1875,16.65625 C 42.026019,16.835716 38.278086,17.36101 35.625,17.34375 C 34.314028,17.335221 33.366663,17.148662 33.03125,17.03125 C 33.020833,17.031214 33.010417,17.031214 33,17.03125 C 32.121132,15.418509 30.357653,14.493608 28.53125,14.6875 L 26.28125,14.9375 C 25.065015,15.072701 23.954754,15.692843 23.201831,16.657527 C 22.448907,17.62221 22.116999,18.849846 22.28125,20.0625 C 22.431101,21.117168 22.338657,22.990805 23.40625,25.40625 C 24.473843,27.821695 27.830015,30.104465 31.125,30.15625 C 31.218728,30.159153 31.312522,30.159153 31.40625,30.15625 L 36.75,29.90625 L 28.65625,47.875 C 24.96484,48.318924 20.968605,48.89457 17.65625,49 C 15.613962,49.065005 13.862493,48.928316 12.90625,48.6875 C 12.428129,48.567092 12.275488,48.469529 12.25,48.46875 C 11.407983,47.03697 9.8517003,46.178855 8.1914976,46.230939 C 6.5312949,46.283024 5.0318626,47.237006 4.28125,48.71875 C 1.8624144,53.576808 3.4476006,59.164455 6.5,62.875 C 7.2966666,63.84922 8.4617557,64.449327 9.7175044,64.532254 C 10.973253,64.615181 12.20714,64.173496 13.125,63.3125 C 13.532028,62.92778 16.254127,61.628121 20,60.96875 C 23.745873,60.309379 28.453289,59.966328 33.1875,59.875 C 36.885468,59.803662 40.417984,59.975823 43.78125,60.125 C 42.867177,61.737899 43.024841,63.744406 44.179611,65.194744 C 45.334382,66.645081 47.254568,67.248253 49.03125,66.71875 C 67.834439,61.047322 79.717148,44.490834 84.90625,31.71875 C 86.437597,27.949601 87.460588,26.053923 88.0625,25.21875 C 88.554479,24.536112 88.865592,24.392035 89.46875,23.96875 C 87.415794,28.888144 85.419425,33.909433 83.5,38.4375 C 81.448208,43.27783 79.459383,47.553937 77.84375,50.28125 C 77.080477,51.569713 76.397671,52.428938 76.03125,52.8125 C 74.525022,53.054095 73.240593,54.035516 72.611714,55.425337 C 71.982836,56.815159 72.093468,58.427829 72.90625,59.71875 L 76.125,64.90625 C 76.877261,66.115338 78.152918,66.90175 79.571075,67.030674 C 80.989232,67.159597 82.385789,66.616113 83.34375,65.5625 C 85.013483,63.729563 91.877198,58.915454 99.28125,53.625 C 106.6853,48.334546 114.92059,42.178147 120.78125,35.25 C 122.26589,33.469373 122.17162,30.856497 120.5625,29.1875 C 122.25968,28.606414 125.65323,27.696415 130.4375,27.375 C 133.44491,27.172957 136.70818,27.063776 139.96875,26.90625 C 129.86791,39.905939 115.30426,49.74235 96.71875,57 C 94.599138,57.855145 93.444858,60.151873 94.02341,62.36305 C 94.601962,64.574228 96.733188,66.011307 99,65.71875 C 109.1021,64.343312 117.97195,60.568321 125.625,55.875 C 125.71108,57.646975 125.85784,59.487455 126.6875,61.375 C 126.18487,61.521257 125.68721,61.735813 125.15625,62.09375 C 123.9271,62.922358 122.98996,64.51853 122.8125,65.84375 C 122.62605,67.2361 122.84758,68.277036 123.21875,69.1875 C 118.89858,79.780084 115.97034,85.284731 114.375,88.03125 C 113.51756,89.50741 112.92147,90.213771 112.375,91.9375 C 112.10176,92.799364 111.96593,94.115026 112.21875,95.1875 C 112.47157,96.259974 112.89992,96.933911 113.21875,97.4375 C 113.58685,98.007747 114.07805,98.488267 114.65625,98.84375 L 117.59375,100.6875 C 118.70881,101.38646 120.07218,101.56755 121.33105,101.1839 C 122.58991,100.80025 123.62054,99.889557 124.15625,98.6875 C 128.41666,89.148011 131.46551,78.849352 137.53125,71.78125 C 139.09559,69.959714 138.97238,67.235391 137.25,65.5625 C 136.86983,65.194342 136.4946,64.989645 136.125,64.65625 C 138.00602,64.058126 140.6747,63.460824 144.03125,63.15625 C 145.24785,63.045855 146.48336,63.01371 147.75,62.9375 C 147.84713,64.42121 148.66417,65.763485 149.9375,66.53125 C 149.89689,66.816177 149.90464,67.027911 149.46875,68.1875 C 149.43613,68.274265 149.47401,68.221661 149.4375,68.3125 C 143.25443,81.557694 139.96425,90.368395 134.5625,96.65625 C 129.12188,102.98935 121.1191,107.7032 103.71875,112.78125 C 101.28525,113.40257 99.81618,115.879 100.4375,118.3125 C 101.05882,120.746 103.53525,122.21507 105.96875,121.59375 C 114.83599,119.68089 124.15157,117.84104 132.625,113.53125 C 139.94452,109.80836 146.42907,103.8332 150.90625,95.0625 C 151.23386,95.045546 151.55867,94.993157 151.875,94.90625 C 163.86806,91.485836 182.95843,93.089831 200.15625,92.53125 C 201.81766,92.475348 203.31587,91.516492 204.0625,90.03125 C 204.75696,88.64865 204.99967,86.891192 204.6875,85.40625 C 204.37533,83.921308 203.68548,82.830134 203.03125,82.03125 C 201.72279,80.433481 200.44882,79.602114 199.9375,79.125 C 199.0317,78.287135 197.82405,77.853753 196.59218,77.924482 C 195.36031,77.995211 194.2102,78.563967 193.40625,79.5 C 193.01654,79.594683 192.72326,79.672077 191.875,79.78125 C 189.34372,80.107028 185.34219,80.273826 180.9375,80.375 C 172.89436,80.559747 163.84658,80.579647 157.28125,81.125 C 158.57478,78.559308 159.65383,75.880478 160.65625,73.84375 C 161.80534,71.509014 163.02509,70.328833 163.0625,70.3125 C 164.49887,69.685505 165.51064,68.362432 165.7394,66.811961 C 165.96816,65.261489 165.3816,63.702598 164.1875,62.6875 C 164.01965,62.545629 163.6881,62.266113 163.5,62.09375 C 164.84874,62.070418 166.14762,62.069212 167.15625,62.21875 C 169.48411,62.563874 170.2052,62.935867 170.90625,64.375 C 171.54883,65.700653 172.79432,66.632423 174.24746,66.874613 C 175.7006,67.116803 177.18096,66.639341 178.21875,65.59375 C 182.18116,61.638734 194.06716,57.915621 204.6875,51.6875 C 216.90451,44.523052 226.12599,38.463123 233.40625,30.125 C 234.91071,28.429232 234.93482,25.883903 233.46276,24.159936 C 231.9907,22.435969 229.47302,22.061029 227.5625,23.28125 C 218.73725,28.846609 205.33672,37.532768 193.84375,43.625 C 188.09727,46.671116 182.78981,49.050341 179.1875,50.03125 C 177.4959,50.491872 176.31318,50.565291 175.8125,50.53125 C 175.0723,49.48271 173.92312,48.796193 172.649,48.641394 C 171.37489,48.486595 170.09474,48.87796 169.125,49.71875 C 168.75684,50.038957 167.00487,50.579121 164.15625,50.5625 C 163.41113,50.558152 162.51486,50.506145 161.6875,50.46875 C 163.47739,46.669109 165.00044,43.47066 166.96875,39.21875 C 167.00263,39.211651 166.96271,39.23206 167.09375,39.1875 C 167.6179,39.009258 168.83132,38.812531 170.34375,38.71875 C 173.36861,38.531187 177.50466,38.711149 181.71875,37.71875 C 183.15348,37.380493 184.33492,36.367159 184.88772,35.000673 C 185.44053,33.634187 185.29598,32.084432 184.5,30.84375 L 181.34375,25.9375 C 180.54676,24.709505 179.20685,23.940821 177.74448,23.872659 C 176.28211,23.804498 174.87651,24.445214 173.96875,25.59375 C 174.04557,25.556352 174.43783,25.160118 174.21875,25.25 C 173.78058,25.429763 172.91215,25.691694 171.84375,25.9375 C 169.70695,26.429112 166.72983,26.861957 163.625,27.125 C 160.92844,27.353454 158.2257,27.373144 155.78125,27.3125 C 156.48654,26.609856 157.16264,26.144117 158.28125,25.9375 C 159.91904,25.634224 161.25954,24.459017 161.77451,22.874996 C 162.28948,21.290975 161.89633,19.552151 160.75,18.34375 L 155.9375,13.28125 C 154.92643,12.221749 153.46661,11.714633 152.01644,11.919144 C 150.56628,12.123654 149.30363,13.014708 148.625,14.3125 C 148.69026,14.256465 148.81733,14.164199 148.625,14.25 C 148.33651,14.378702 147.45253,14.618149 146.09375,14.75 C 143.3762,15.013702 138.85884,14.93288 132.78125,15.03125 C 128.02824,15.10708 123.7179,15.648799 120.84375,15.59375 C 119.40668,15.566225 118.37371,15.370134 117.90625,15.1875 C 117.43879,15.004866 117.53448,15.05857 117.40625,14.8125 C 116.4965,13.087642 114.58746,12.135772 112.66241,12.447177 C 110.73737,12.758581 109.22579,14.263788 108.90625,16.1875 C 108.07241,21.299969 110.39583,25.213414 111.78125,28.25 C 112.05852,28.851132 112.4638,29.384406 112.96875,29.8125 C 107.13826,33.863546 101.52008,37.876286 95.59375,41.78125 C 97.862552,36.661069 100.11071,31.352448 102.25,26.5625 C 104.36638,21.82385 106.37676,17.590447 108,14.71875 C 108.81162,13.282902 109.5304,12.182177 109.96875,11.65625 C 110.20703,11.370364 110.30685,11.416446 110.125,11.53125 C 111.4338,11.014641 112.42936,9.9207398 112.82075,8.5692026 C 113.21215,7.2176655 112.9552,5.7610488 112.125,4.625 C 109.97752,1.6786976 107.1785,-1.2886376 102.4375,-1.53125 z M 189.75,10.46875 C 187.8468,10.571611 186.21016,11.851509 185.6516,13.673802 C 185.09304,15.496095 185.73134,17.473295 187.25,18.625 C 191.93212,22.170867 194.57027,25.812375 197,29.875 C 197.66388,30.986147 198.77021,31.761355 200.04124,32.006014 C 201.31228,32.250673 202.62732,31.941551 203.65625,31.15625 C 206.51625,28.99563 208.63853,26.67593 209.09375,23.375 C 209.54897,20.07407 207.53771,17.083148 205.46875,15.5 C 201.33082,12.333705 195.93261,11.268897 190.65625,10.5 C 190.35596,10.459386 190.05237,10.448917 189.75,10.46875 z M 145.34375,39.15625 C 147.19945,39.877937 148.90324,39.960634 150.53125,39.96875 C 151.10187,39.971595 151.40712,39.927728 151.96875,39.90625 L 147.34375,50.75 C 144.00794,51.14624 140.60843,51.644451 138.25,51.71875 C 135.17868,51.815507 133.99327,51.344926 133.5,50.75 C 133.43934,50.685689 133.37681,50.623162 133.3125,50.5625 C 138.16202,46.785748 142.0182,42.909262 145.34375,39.15625 z M 221.53125,53.8125 C 220.94719,53.810235 220.17387,53.807163 219.3125,53.9375 C 217.68186,54.183505 216.31258,55.293831 215.73497,56.838456 C 215.15735,58.383082 215.46213,60.11942 216.53125,61.375 C 217.66331,62.704502 217.28407,62.12041 217.15625,62.53125 C 217.02843,62.94209 216.07162,64.154765 215.125,66.46875 C 209.9052,79.228422 194.5625,109.6875 194.5625,109.6875 C 193.52275,111.7189 194.1513,114.20638 196.03125,115.5 L 200.0625,118.28125 C 201.17186,119.04529 202.56308,119.27764 203.86052,118.91556 C 205.15796,118.55349 206.22782,117.63432 206.78125,116.40625 L 219.59375,88.25 C 224.53146,90.776469 227.67348,94.522373 231.59375,98.96875 C 231.74717,99.148154 231.91435,99.315327 232.09375,99.46875 C 233.82347,100.91324 236.69929,101.08685 238.40625,100.375 C 240.11321,99.66315 241.10281,98.582539 241.90625,97.4375 C 243.51313,95.147422 244.78907,92.072087 242.96875,88.46875 C 242.78297,88.117135 242.55183,87.791435 242.28125,87.5 C 237.84066,82.540743 231.7453,79.338486 224.78125,77.09375 C 225.57544,75.019848 226.28016,72.992637 227,71.28125 C 227.65139,69.732599 228.31028,68.464725 228.84375,67.75 C 229.37722,67.035275 229.61429,67.009859 229.53125,67.03125 C 230.98382,66.664205 232.16202,65.604597 232.68055,64.198963 C 233.19907,62.793329 232.99123,61.222423 232.125,60 C 230.16759,57.215924 226.57754,53.832068 221.53125,53.8125 z "
       transform="translate(2.1428574,5.6783915)"
       style="opacity:1;color:#000000;fill:#000000;fill-opacity:1;fill-rule:evenodd;stroke:none;stroke-width:0.40000001;stroke-linecap:butt;stroke-linejoin:miter;marker:none;marker-start:none;marker-mid:none;marker-end:none;stroke-miterlimit:4;stroke-dasharray:none;stroke-dashoffset:0;stroke-opacity:1;visibility:visible;display:inline;overflow:visible;filter:url(#filter3262);enable-background:accumulate"
       id="path3244" />
    <path
       d="M 102.4375,-1.53125 C 100.27225,-1.6420528 97.738626,-0.68266906 96.125,1.125 C 95.251511,2.0984134 94.839907,3.4010532 94.995497,4.6996323 C 95.151087,5.9982114 95.858777,7.1667422 96.9375,7.90625 C 96.855035,8.1204266 96.917426,7.9177806 96.71875,8.25 C 96.686062,8.3117706 96.654804,8.3742872 96.625,8.4375 C 94.924822,11.571161 93.253311,15.44364 91.59375,19.25 C 91.462998,18.444234 91.117558,17.688583 90.59375,17.0625 C 88.161499,14.215592 84.33537,11.410536 79.5,11.5 C 78.882648,11.511422 78.185794,11.556192 77.40625,11.6875 C 75.83952,11.949819 74.523598,13.011428 73.935833,14.487229 C 73.348069,15.963029 73.57384,17.638646 74.53125,18.90625 L 75.84375,20.65625 C 71.881817,30.520644 67.055301,39.444357 59.65625,46.78125 C 57.884229,45.019431 55.022021,45.019431 53.25,46.78125 C 53.858278,46.18001 53.511131,46.614072 52.4375,46.78125 C 51.363869,46.948428 49.729043,47.018173 47.875,47.03125 C 46.453236,47.041278 44.83869,47.017043 43.25,47 L 50.8125,31.09375 C 51.485416,29.692394 51.895364,29.193634 52.09375,29.03125 C 52.292136,28.868866 52.602999,28.585067 54.375,28.5 C 54.458318,28.502293 54.541682,28.502293 54.625,28.5 L 70.03125,26.875 C 71.682131,26.705311 73.10912,25.648931 73.753422,24.119527 C 74.397724,22.590123 74.156803,20.831091 73.125,19.53125 L 69.34375,14.71875 C 67.789243,12.753394 64.936937,12.417829 62.96875,13.96875 C 60.62272,15.817098 53.009777,16.066547 46.1875,16.65625 C 42.026019,16.835716 38.278086,17.36101 35.625,17.34375 C 34.314028,17.335221 33.366663,17.148662 33.03125,17.03125 C 33.020833,17.031214 33.010417,17.031214 33,17.03125 C 32.121132,15.418509 30.357653,14.493608 28.53125,14.6875 L 26.28125,14.9375 C 25.065015,15.072701 23.954754,15.692843 23.201831,16.657527 C 22.448907,17.62221 22.116999,18.849846 22.28125,20.0625 C 22.431101,21.117168 22.338657,22.990805 23.40625,25.40625 C 24.473843,27.821695 27.830015,30.104465 31.125,30.15625 C 31.218728,30.159153 31.312522,30.159153 31.40625,30.15625 L 36.75,29.90625 L 28.65625,47.875 C 24.96484,48.318924 20.968605,48.89457 17.65625,49 C 15.613962,49.065005 13.862493,48.928316 12.90625,48.6875 C 12.428129,48.567092 12.275488,48.469529 12.25,48.46875 C 11.407983,47.03697 9.8517003,46.178855 8.1914976,46.230939 C 6.5312949,46.283024 5.0318626,47.237006 4.28125,48.71875 C 1.8624144,53.576808 3.4476006,59.164455 6.5,62.875 C 7.2966666,63.84922 8.4617557,64.449327 9.7175044,64.532254 C 10.973253,64.615181 12.20714,64.173496 13.125,63.3125 C 13.532028,62.92778 16.254127,61.628121 20,60.96875 C 23.745873,60.309379 28.453289,59.966328 33.1875,59.875 C 36.885468,59.803662 40.417984,59.975823 43.78125,60.125 C 42.867177,61.737899 43.024841,63.744406 44.179611,65.194744 C 45.334382,66.645081 47.254568,67.248253 49.03125,66.71875 C 67.834439,61.047322 79.717148,44.490834 84.90625,31.71875 C 86.437597,27.949601 87.460588,26.053923 88.0625,25.21875 C 88.554479,24.536112 88.865592,24.392035 89.46875,23.96875 C 87.415794,28.888144 85.419425,33.909433 83.5,38.4375 C 81.448208,43.27783 79.459383,47.553937 77.84375,50.28125 C 77.080477,51.569713 76.397671,52.428938 76.03125,52.8125 C 74.525022,53.054095 73.240593,54.035516 72.611714,55.425337 C 71.982836,56.815159 72.093468,58.427829 72.90625,59.71875 L 76.125,64.90625 C 76.877261,66.115338 78.152918,66.90175 79.571075,67.030674 C 80.989232,67.159597 82.385789,66.616113 83.34375,65.5625 C 85.013483,63.729563 91.877198,58.915454 99.28125,53.625 C 106.6853,48.334546 114.92059,42.178147 120.78125,35.25 C 122.26589,33.469373 122.17162,30.856497 120.5625,29.1875 C 122.25968,28.606414 125.65323,27.696415 130.4375,27.375 C 133.44491,27.172957 136.70818,27.063776 139.96875,26.90625 C 129.86791,39.905939 115.30426,49.74235 96.71875,57 C 94.599138,57.855145 93.444858,60.151873 94.02341,62.36305 C 94.601962,64.574228 96.733188,66.011307 99,65.71875 C 109.1021,64.343312 117.97195,60.568321 125.625,55.875 C 125.71108,57.646975 125.85784,59.487455 126.6875,61.375 C 126.18487,61.521257 125.68721,61.735813 125.15625,62.09375 C 123.9271,62.922358 122.98996,64.51853 122.8125,65.84375 C 122.62605,67.2361 122.84758,68.277036 123.21875,69.1875 C 118.89858,79.780084 115.97034,85.284731 114.375,88.03125 C 113.51756,89.50741 112.92147,90.213771 112.375,91.9375 C 112.10176,92.799364 111.96593,94.115026 112.21875,95.1875 C 112.47157,96.259974 112.89992,96.933911 113.21875,97.4375 C 113.58685,98.007747 114.07805,98.488267 114.65625,98.84375 L 117.59375,100.6875 C 118.70881,101.38646 120.07218,101.56755 121.33105,101.1839 C 122.58991,100.80025 123.62054,99.889557 124.15625,98.6875 C 128.41666,89.148011 131.46551,78.849352 137.53125,71.78125 C 139.09559,69.959714 138.97238,67.235391 137.25,65.5625 C 136.86983,65.194342 136.4946,64.989645 136.125,64.65625 C 138.00602,64.058126 140.6747,63.460824 144.03125,63.15625 C 145.24785,63.045855 146.48336,63.01371 147.75,62.9375 C 147.84713,64.42121 148.66417,65.763485 149.9375,66.53125 C 149.89689,66.816177 149.90464,67.027911 149.46875,68.1875 C 149.43613,68.274265 149.47401,68.221661 149.4375,68.3125 C 143.25443,81.557694 139.96425,90.368395 134.5625,96.65625 C 129.12188,102.98935 121.1191,107.7032 103.71875,112.78125 C 101.28525,113.40257 99.81618,115.879 100.4375,118.3125 C 101.05882,120.746 103.53525,122.21507 105.96875,121.59375 C 114.83599,119.68089 124.15157,117.84104 132.625,113.53125 C 139.94452,109.80836 146.42907,103.8332 150.90625,95.0625 C 151.23386,95.045546 151.55867,94.993157 151.875,94.90625 C 163.86806,91.485836 182.95843,93.089831 200.15625,92.53125 C 201.81766,92.475348 203.31587,91.516492 204.0625,90.03125 C 204.75696,88.64865 204.99967,86.891192 204.6875,85.40625 C 204.37533,83.921308 203.68548,82.830134 203.03125,82.03125 C 201.72279,80.433481 200.44882,79.602114 199.9375,79.125 C 199.0317,78.287135 197.82405,77.853753 196.59218,77.924482 C 195.36031,77.995211 194.2102,78.563967 193.40625,79.5 C 193.01654,79.594683 192.72326,79.672077 191.875,79.78125 C 189.34372,80.107028 185.34219,80.273826 180.9375,80.375 C 172.89436,80.559747 163.84658,80.579647 157.28125,81.125 C 158.57478,78.559308 159.65383,75.880478 160.65625,73.84375 C 161.80534,71.509014 163.02509,70.328833 163.0625,70.3125 C 164.49887,69.685505 165.51064,68.362432 165.7394,66.811961 C 165.96816,65.261489 165.3816,63.702598 164.1875,62.6875 C 164.01965,62.545629 163.6881,62.266113 163.5,62.09375 C 164.84874,62.070418 166.14762,62.069212 167.15625,62.21875 C 169.48411,62.563874 170.2052,62.935867 170.90625,64.375 C 171.54883,65.700653 172.79432,66.632423 174.24746,66.874613 C 175.7006,67.116803 177.18096,66.639341 178.21875,65.59375 C 182.18116,61.638734 194.06716,57.915621 204.6875,51.6875 C 216.90451,44.523052 226.12599,38.463123 233.40625,30.125 C 234.91071,28.429232 234.93482,25.883903 233.46276,24.159936 C 231.9907,22.435969 229.47302,22.061029 227.5625,23.28125 C 218.73725,28.846609 205.33672,37.532768 193.84375,43.625 C 188.09727,46.671116 182.78981,49.050341 179.1875,50.03125 C 177.4959,50.491872 176.31318,50.565291 175.8125,50.53125 C 175.0723,49.48271 173.92312,48.796193 172.649,48.641394 C 171.37489,48.486595 170.09474,48.87796 169.125,49.71875 C 168.75684,50.038957 167.00487,50.579121 164.15625,50.5625 C 163.41113,50.558152 162.51486,50.506145 161.6875,50.46875 C 163.47739,46.669109 165.00044,43.47066 166.96875,39.21875 C 167.00263,39.211651 166.96271,39.23206 167.09375,39.1875 C 167.6179,39.009258 168.83132,38.812531 170.34375,38.71875 C 173.36861,38.531187 177.50466,38.711149 181.71875,37.71875 C 183.15348,37.380493 184.33492,36.367159 184.88772,35.000673 C 185.44053,33.634187 185.29598,32.084432 184.5,30.84375 L 181.34375,25.9375 C 180.54676,24.709505 179.20685,23.940821 177.74448,23.872659 C 176.28211,23.804498 174.87651,24.445214 173.96875,25.59375 C 174.04557,25.556352 174.43783,25.160118 174.21875,25.25 C 173.78058,25.429763 172.91215,25.691694 171.84375,25.9375 C 169.70695,26.429112 166.72983,26.861957 163.625,27.125 C 160.92844,27.353454 158.2257,27.373144 155.78125,27.3125 C 156.48654,26.609856 157.16264,26.144117 158.28125,25.9375 C 159.91904,25.634224 161.25954,24.459017 161.77451,22.874996 C 162.28948,21.290975 161.89633,19.552151 160.75,18.34375 L 155.9375,13.28125 C 154.92643,12.221749 153.46661,11.714633 152.01644,11.919144 C 150.56628,12.123654 149.30363,13.014708 148.625,14.3125 C 148.69026,14.256465 148.81733,14.164199 148.625,14.25 C 148.33651,14.378702 147.45253,14.618149 146.09375,14.75 C 143.3762,15.013702 138.85884,14.93288 132.78125,15.03125 C 128.02824,15.10708 123.7179,15.648799 120.84375,15.59375 C 119.40668,15.566225 118.37371,15.370134 117.90625,15.1875 C 117.43879,15.004866 117.53448,15.05857 117.40625,14.8125 C 116.4965,13.087642 114.58746,12.135772 112.66241,12.447177 C 110.73737,12.758581 109.22579,14.263788 108.90625,16.1875 C 108.07241,21.299969 110.39583,25.213414 111.78125,28.25 C 112.05852,28.851132 112.4638,29.384406 112.96875,29.8125 C 107.13826,33.863546 101.52008,37.876286 95.59375,41.78125 C 97.862552,36.661069 100.11071,31.352448 102.25,26.5625 C 104.36638,21.82385 106.37676,17.590447 108,14.71875 C 108.81162,13.282902 109.5304,12.182177 109.96875,11.65625 C 110.20703,11.370364 110.30685,11.416446 110.125,11.53125 C 111.4338,11.014641 112.42936,9.9207398 112.82075,8.5692026 C 113.21215,7.2176655 112.9552,5.7610488 112.125,4.625 C 109.97752,1.6786976 107.1785,-1.2886376 102.4375,-1.53125 z M 189.75,10.46875 C 187.8468,10.571611 186.21016,11.851509 185.6516,13.673802 C 185.09304,15.496095 185.73134,17.473295 187.25,18.625 C 191.93212,22.170867 194.57027,25.812375 197,29.875 C 197.66388,30.986147 198.77021,31.761355 200.04124,32.006014 C 201.31228,32.250673 202.62732,31.941551 203.65625,31.15625 C 206.51625,28.99563 208.63853,26.67593 209.09375,23.375 C 209.54897,20.07407 207.53771,17.083148 205.46875,15.5 C 201.33082,12.333705 195.93261,11.268897 190.65625,10.5 C 190.35596,10.459386 190.05237,10.448917 189.75,10.46875 z M 145.34375,39.15625 C 147.19945,39.877937 148.90324,39.960634 150.53125,39.96875 C 151.10187,39.971595 151.40712,39.927728 151.96875,39.90625 L 147.34375,50.75 C 144.00794,51.14624 140.60843,51.644451 138.25,51.71875 C 135.17868,51.815507 133.99327,51.344926 133.5,50.75 C 133.43934,50.685689 133.37681,50.623162 133.3125,50.5625 C 138.16202,46.785748 142.0182,42.909262 145.34375,39.15625 z M 221.53125,53.8125 C 220.94719,53.810235 220.17387,53.807163 219.3125,53.9375 C 217.68186,54.183505 216.31258,55.293831 215.73497,56.838456 C 215.15735,58.383082 215.46213,60.11942 216.53125,61.375 C 217.66331,62.704502 217.28407,62.12041 217.15625,62.53125 C 217.02843,62.94209 216.07162,64.154765 215.125,66.46875 C 209.9052,79.228422 194.5625,109.6875 194.5625,109.6875 C 193.52275,111.7189 194.1513,114.20638 196.03125,115.5 L 200.0625,118.28125 C 201.17186,119.04529 202.56308,119.27764 203.86052,118.91556 C 205.15796,118.55349 206.22782,117.63432 206.78125,116.40625 L 219.59375,88.25 C 224.53146,90.776469 227.67348,94.522373 231.59375,98.96875 C 231.74717,99.148154 231.91435,99.315327 232.09375,99.46875 C 233.82347,100.91324 236.69929,101.08685 238.40625,100.375 C 240.11321,99.66315 241.10281,98.582539 241.90625,97.4375 C 243.51313,95.147422 244.78907,92.072087 242.96875,88.46875 C 242.78297,88.117135 242.55183,87.791435 242.28125,87.5 C 237.84066,82.540743 231.7453,79.338486 224.78125,77.09375 C 225.57544,75.019848 226.28016,72.992637 227,71.28125 C 227.65139,69.732599 228.31028,68.464725 228.84375,67.75 C 229.37722,67.035275 229.61429,67.009859 229.53125,67.03125 C 230.98382,66.664205 232.16202,65.604597 232.68055,64.198963 C 233.19907,62.793329 232.99123,61.222423 232.125,60 C 230.16759,57.215924 226.57754,53.832068 221.53125,53.8125 z "
       transform="translate(0,3.5355341)"
       style="opacity:1;color:#000000;fill:#ffffff;fill-opacity:1;fill-rule:evenodd;stroke:none;stroke-width:0.40000001;stroke-linecap:butt;stroke-linejoin:miter;marker:none;marker-start:none;marker-mid:none;marker-end:none;stroke-miterlimit:4;stroke-dasharray:none;stroke-dashoffset:0;stroke-opacity:1;visibility:visible;display:inline;overflow:visible;enable-background:accumulate"
       id="path3242" />
    <path
       d="M 102.21875,6.5355341 C 101.22627,6.4847458 100.27642,6.8219972 99.5,7.6917841 C 102.65165,9.0315923 102.22414,11.455257 100.625,14.129282 C 92.038701,29.955005 82.612207,61.723253 76.78125,60.848032 L 80,66.035532 C 85.355607,60.156454 106.61872,48.489634 117.3125,35.848032 C 106.93702,42.975171 97.543713,50.249389 85,57.066782 C 93.200517,41.535685 103.93004,11.18339 108.46875,10.848034 C 106.84744,8.6236263 104.4022,6.6472683 102.21875,6.5355341 z M 190,18.535532 C 195.24307,22.50622 198.33199,26.762493 200.90625,31.066782 C 210.42341,23.876937 199.84796,19.970623 190,18.535532 z M 79.59375,19.566782 C 79.135806,19.575255 78.651684,19.60833 78.15625,19.691782 L 81.0625,23.535532 C 76.272315,35.941237 70.386458,47.745813 59.59375,56.816782 L 56.4375,53.535532 C 53.82075,56.122007 43.097523,54.591799 36,55.285532 L 46.71875,32.691782 C 48.178295,29.652263 49.425126,27.731404 54.15625,27.504282 L 69.5625,25.879282 L 65.78125,21.066782 C 61.175443,24.695522 52.823331,24.18456 46.59375,24.723032 C 38.852103,25.056895 30.882316,26.890792 29.03125,22.723032 L 26.78125,22.973032 C 27.18185,25.792498 26.969713,29.094244 31.1875,29.160532 L 43.9375,28.535532 L 31.6875,55.660532 C 23.550023,56.507185 10.6095,59.037093 8.34375,54.285532 C 6.7180486,57.550637 7.5906445,60.606681 10,63.535532 C 17.022524,56.897887 49.327663,58.953408 55.8125,59.973032 C 53.11876,61.718976 50.665028,63.33658 47.71875,65.910532 C 64.615444,60.814142 75.913854,45.285043 80.6875,33.535532 C 83.876038,25.68749 85.195468,24.924492 87.125,23.535532 C 85.121549,21.190527 82.799359,19.507472 79.59375,19.566782 z M 152.65625,19.941782 C 150.81144,23.555669 144.80957,22.904356 132.84375,23.098032 C 124.02407,23.238742 115.94183,25.3673 113.375,20.441782 C 112.86014,23.598509 114.46602,26.753805 115.90625,29.910532 C 120.75232,25.285847 137.95178,26.679921 149.125,25.129282 C 138.52732,43.087218 121.08977,55.884152 98.375,64.754282 C 119.94829,61.817001 136.52046,46.949488 145,36.348032 C 146.04997,40.506475 154.11416,38.428809 158.96875,38.535532 L 150.5,58.535532 C 141.93256,59.329381 133.63856,61.58024 130,57.191782 C 129.85912,59.891134 130.07704,62.513489 131.9375,64.879282 C 137.1642,61.790117 149.39525,61.894812 157.46875,61.348032 C 164.53425,60.869517 172.13702,60.033328 175,65.910532 C 180.61811,60.302901 192.49711,57.109508 202.375,51.316782 C 214.48146,44.217164 223.25869,38.381391 230,30.660532 C 212.4553,41.724536 176.13793,65.639674 172.09375,56.691782 C 168.31777,59.975953 160.46393,57.984085 154.5625,58.535532 C 154.5625,58.535532 159.94151,47.150765 163,40.535532 C 164.91403,36.39566 173.99939,38.423053 180.6875,36.848032 L 177.53125,31.941782 C 175.66851,34.81315 153.32843,36.971479 147.46875,34.223032 C 150.42155,30.778199 152.06858,26.001746 157.46875,25.004282 L 152.65625,19.941782 z M 221.5,61.879282 C 221.02888,61.877455 220.52836,61.893084 220,61.973032 C 223.68453,66.300197 220.49836,68.900617 219.34375,71.723032 C 213.90966,85.006532 198.625,115.28556 198.625,115.28556 L 202.65625,118.06681 L 217.3125,85.848032 C 225.92769,88.581574 230.29282,94.165397 235,99.504282 C 237.02905,101.19876 240.17717,96.582575 238.90625,94.066782 C 234.30449,88.927535 227.19977,85.648149 218.5625,83.535532 C 221.74603,77.476712 223.43122,67.44202 228.40625,66.160532 C 226.74923,63.803707 224.79783,61.89207 221.5,61.879282 z M 154.25,65.473032 C 153.6297,65.531998 152.97557,65.756164 152.28125,66.160532 C 154.81092,66.713074 155.50115,68.944929 153.65625,73.535532 C 141.27891,99.997473 140.56207,110.31352 105,120.69181 C 122.79518,116.85299 140.79459,113.352 148.75,92.785532 L 150.625,94.066782 C 164.08241,90.228736 183.24862,92.079613 200,91.535532 C 201.2144,89.117775 198.52399,87.54086 196.84375,85.973032 C 197.74344,89.563795 167.55895,87.921208 155.6875,89.254282 C 150.68702,89.815797 150.65571,87.437022 152.78125,83.535532 C 155.50201,78.541489 157.36811,71.386686 161.25,69.691782 C 159.02055,67.807408 156.93799,65.217512 154.25,65.473032 z M 128.46875,69.191782 C 127.17224,69.17764 126.77904,70.232789 128.28125,72.473032 C 118.34809,97.450837 115.36007,95.84657 117.0625,98.535532 L 120,100.37928 C 124.06194,91.28418 127.1545,80.433995 134.09375,72.348032 C 131.9692,70.290624 129.76526,69.205924 128.46875,69.191782 z "
       style="opacity:1;color:#000000;fill:url(#linearGradient3294);fill-opacity:1;fill-rule:evenodd;stroke:none;stroke-width:0.40000001;stroke-linecap:butt;stroke-linejoin:miter;marker:none;marker-start:none;marker-mid:none;marker-end:none;stroke-miterlimit:4;stroke-dasharray:none;stroke-dashoffset:0;stroke-opacity:1;visibility:visible;display:inline;overflow:visible;enable-background:accumulate"
       id="path3205" />
    <path
       d="M 46.40625,76.848032 C 46.299866,76.848034 46.174444,76.863063 46.0625,76.879282 C 44.955199,77.039715 43.588769,77.975832 41.9375,79.723032 C 40.637018,81.122211 39.155588,83.016661 37.53125,85.410532 C 36.67414,86.722258 35.825858,88.03632 34.96875,89.348032 C 34.570154,89.92738 33.973711,90.517154 33.1875,91.129282 C 32.509594,91.618642 31.855059,92.139929 31.1875,92.629282 C 31.169126,92.642751 31.143366,92.647063 31.125,92.660532 L 31.0625,92.629282 C 31.040635,92.629286 30.333697,93.14241 28.9375,94.191782 C 27.898549,94.978812 26.968862,95.463775 26.125,95.660532 C 25.951751,95.700927 25.788625,95.708199 25.625,95.723032 C 25.614945,95.723944 25.603784,95.72221 25.59375,95.723032 C 25.303788,95.649247 25.14685,95.455666 25.09375,95.160532 C 24.952162,94.373504 25.361458,93.707087 26.3125,93.160532 C 27.208662,92.734228 28.101874,92.325909 29,91.910532 C 29.95891,91.407712 30.367992,90.816398 30.25,90.160532 C 30.166605,89.696998 29.879618,89.464808 29.40625,89.379282 C 29.270738,89.343755 29.109663,89.316784 28.9375,89.316782 C 28.840576,89.316783 28.751636,89.337766 28.65625,89.348032 C 28.645859,89.346644 28.63554,89.349257 28.625,89.348032 C 28.560352,89.34052 28.506666,89.316783 28.4375,89.316782 C 28.329924,89.316783 28.23276,89.338844 28.125,89.348032 C 27.028291,89.441536 25.92833,89.990475 24.8125,91.035532 C 23.531284,92.237942 22.975116,93.448738 23.1875,94.629282 C 23.367121,95.627666 24.061793,96.158749 25.25,96.254282 C 25.409723,96.271532 25.602256,96.285532 25.78125,96.285532 C 25.824426,96.282793 25.866196,96.262975 25.90625,96.254282 C 26.029939,96.264476 26.15472,96.285532 26.28125,96.285532 C 26.388164,96.278749 26.475012,96.247258 26.59375,96.223032 C 27.747826,96.046669 29.511966,94.995124 31.875,93.035532 L 31.90625,93.035532 C 32.09345,92.92038 32.211929,92.829745 32.375,92.723032 C 32.201,92.992259 31.927356,93.409487 31.90625,93.441782 C 31.59204,94.064849 31.495425,94.645233 31.59375,95.191782 C 31.721581,95.902295 32.12385,96.254284 32.8125,96.254282 C 32.857957,96.257763 32.889295,96.254282 32.9375,96.254282 C 32.99476,96.250306 33.064141,96.230019 33.125,96.223032 C 33.1884,96.23014 33.243334,96.254282 33.3125,96.254282 C 33.357956,96.257763 33.389295,96.254282 33.4375,96.254282 C 33.570662,96.245035 33.708216,96.233906 33.875,96.191782 C 34.523977,96.056163 35.466438,95.668082 36.6875,94.973032 C 38.227134,94.098166 38.95829,93.388244 38.9375,92.879282 C 39.032624,92.813053 39.097536,92.755933 39.1875,92.691782 C 38.471182,94.519315 37.468286,96.479234 36.15625,98.566782 C 34.805877,100.59994 33.477354,102.60707 32.125,104.62931 L 32.25,104.62931 L 32.625,104.62931 L 33.96875,104.62931 L 34.09375,104.62931 L 34.46875,104.62931 L 34.59375,104.62931 L 41.78125,94.004282 C 41.873564,94.035699 41.974744,94.078407 42.0625,94.098032 C 42.266849,94.155419 42.470424,94.160531 42.65625,94.160532 C 42.697963,94.158566 42.739147,94.132462 42.78125,94.129282 C 42.913183,94.146836 43.034748,94.160531 43.15625,94.160532 C 43.330847,94.152302 43.509382,94.134546 43.6875,94.098032 C 44.081099,94.032259 44.494448,93.86736 44.90625,93.660532 C 44.859662,93.984714 44.848947,94.310764 44.90625,94.629282 C 45.086232,95.629673 45.776123,96.160375 46.96875,96.254282 C 47.128474,96.271532 47.289756,96.285532 47.46875,96.285532 C 47.508965,96.283138 47.552319,96.26181 47.59375,96.254282 C 47.715033,96.26552 47.83433,96.285532 47.96875,96.285532 C 48.07803,96.279026 48.190795,96.247863 48.3125,96.223032 C 49.466702,96.042708 51.236554,94.990282 53.59375,93.035532 C 55.623315,91.2682 57.025609,90.25917 57.84375,89.941782 L 57.90625,89.973032 C 56.589302,92.192023 55.278241,94.266391 53.96875,96.223032 L 54.09375,96.223032 L 54.46875,96.223032 L 55.8125,96.223032 L 55.9375,96.223032 L 56.3125,96.223032 L 56.4375,96.223032 C 59.331271,92.238128 61.65827,90.115699 63.4375,89.816782 C 63.473959,89.831089 63.466117,89.829841 63.53125,89.848032 C 62.926467,90.678791 62.336418,91.496968 61.71875,92.316782 C 60.949315,93.50826 60.630038,94.431246 60.75,95.098032 C 60.862259,95.722028 61.153572,96.076657 61.625,96.191782 C 61.742903,96.23334 61.887858,96.248838 62.03125,96.254282 C 62.052867,96.255103 62.071554,96.254282 62.09375,96.254282 C 62.153044,96.254282 62.243247,96.232407 62.3125,96.223032 C 62.386042,96.234256 62.454166,96.251355 62.53125,96.254282 C 62.552866,96.255103 62.571554,96.254282 62.59375,96.254282 C 63.173085,96.254282 64.226339,95.80687 65.78125,94.910532 C 67.395832,93.981402 68.176336,93.275886 68.09375,92.816782 L 67.96875,92.660532 C 67.96689,92.661019 67.879376,92.72059 67.875,92.723032 L 67.84375,92.660532 C 67.838581,92.661885 67.618498,92.831839 67.59375,92.848032 C 67.592778,92.838254 67.595471,92.826347 67.59375,92.816782 L 67.46875,92.660532 C 67.466888,92.661019 67.379376,92.72059 67.375,92.723032 L 67.34375,92.660532 C 67.301982,92.671467 66.620141,93.165813 65.3125,94.160532 C 64.204443,95.01052 63.297442,95.503932 62.5625,95.629282 C 62.506918,95.593756 62.48153,95.512832 62.46875,95.441782 C 62.437279,95.266887 62.885671,94.60047 63.78125,93.441782 C 64.674847,92.272172 65.028385,91.263153 64.875,90.410532 C 64.747168,89.700026 64.382445,89.348035 63.78125,89.348032 C 63.761928,89.348032 63.738338,89.347469 63.71875,89.348032 C 63.696829,89.347029 63.678838,89.348032 63.65625,89.348032 C 63.606568,89.348032 63.552401,89.365516 63.5,89.379282 C 63.427747,89.366551 63.362046,89.348032 63.28125,89.348032 C 63.261929,89.348032 63.238338,89.347469 63.21875,89.348032 C 63.19683,89.347029 63.178838,89.348032 63.15625,89.348032 C 63.056887,89.348033 62.950176,89.395657 62.84375,89.410532 C 61.951075,89.535302 60.797643,90.212429 59.40625,91.379282 C 59.516741,90.971807 59.559796,90.586659 59.5,90.254282 C 59.413201,89.771836 59.14354,89.491221 58.75,89.410532 C 58.641007,89.374322 58.511636,89.379283 58.375,89.379282 C 58.336353,89.379282 58.291269,89.405411 58.25,89.410532 C 58.23196,89.404539 58.206597,89.414479 58.1875,89.410532 C 58.091218,89.390634 57.98902,89.379283 57.875,89.379282 C 57.751187,89.379283 57.61229,89.410357 57.46875,89.441782 C 56.864605,89.574045 56.109865,89.971604 55.15625,90.660532 C 54.318123,91.2715 53.577506,91.937113 52.90625,92.629282 C 52.880944,92.655376 52.837568,92.665573 52.8125,92.691782 L 52.78125,92.629282 C 52.759385,92.629286 52.052449,93.14241 50.65625,94.191782 C 49.617299,94.978812 48.656362,95.463775 47.8125,95.660532 C 47.639211,95.700937 47.476959,95.708722 47.3125,95.723032 C 47.022535,95.649247 46.865599,95.455666 46.8125,95.160532 C 46.67091,94.373504 47.048958,93.707087 48,93.160532 C 48.89616,92.734228 49.789374,92.325909 50.6875,91.910532 C 51.646408,91.407712 52.086742,90.816398 51.96875,90.160532 C 51.885353,89.696998 51.598369,89.464808 51.125,89.379282 C 50.989486,89.343755 50.828412,89.316784 50.65625,89.316782 C 50.555805,89.316783 50.446185,89.337524 50.34375,89.348032 C 50.33321,89.346807 50.323181,89.349084 50.3125,89.348032 C 50.257669,89.342633 50.214139,89.316783 50.15625,89.316782 C 50.045852,89.316783 49.923092,89.338356 49.8125,89.348032 C 48.718569,89.443742 47.612953,89.993169 46.5,91.035532 C 45.915504,91.584077 45.523644,92.147789 45.25,92.691782 L 45.21875,92.660532 C 45.122335,92.671467 44.756175,92.851381 44.15625,93.223032 C 43.734673,93.477179 43.312928,93.628247 42.90625,93.691782 C 42.831138,93.682162 42.759309,93.683516 42.6875,93.660532 C 42.533814,93.611343 42.384017,93.540163 42.21875,93.441782 C 44.531204,89.768983 45.862175,87.826051 46.1875,87.629282 C 49.757318,85.355652 51.743664,84.050972 52.1875,83.723032 C 54.956058,81.61337 56.220457,79.87221 55.96875,78.473032 C 55.913672,78.166983 55.744615,77.91981 55.46875,77.723032 C 55.29092,77.590123 55.122401,77.520887 54.9375,77.473032 C 54.794254,77.42111 54.647562,77.410542 54.5,77.410532 C 54.41976,77.410533 54.333521,77.427093 54.25,77.441782 C 54.166932,77.429213 54.08411,77.410538 54,77.410532 C 53.859229,77.410534 53.713475,77.443587 53.5625,77.473032 C 52.165977,77.745403 50.332182,79.243884 48.0625,82.035532 C 46.400788,84.221738 44.744526,86.41185 43.09375,88.598032 C 42.606327,89.066519 42.265694,89.354535 41.9375,89.629282 C 41.922954,89.612904 41.922373,89.58348 41.90625,89.566782 C 41.767442,89.402824 41.621785,89.31679 41.46875,89.316782 C 41.433743,89.316782 41.408466,89.313076 41.375,89.316782 C 41.364955,89.316066 41.353856,89.316783 41.34375,89.316782 C 41.307076,89.316782 41.284983,89.343965 41.25,89.348032 C 41.227318,89.350669 41.209493,89.37505 41.1875,89.379282 C 41.177872,89.373734 41.16594,89.384112 41.15625,89.379282 C 41.092574,89.347539 41.035161,89.316785 40.96875,89.316782 C 40.933744,89.316782 40.908466,89.313076 40.875,89.316782 C 40.864956,89.316066 40.853856,89.316783 40.84375,89.316782 C 40.807077,89.316782 40.784983,89.343965 40.75,89.348032 C 40.148934,89.417919 39.78947,90.04623 39.6875,91.316782 C 39.219847,91.633785 38.598716,92.110904 37.8125,92.723032 L 37.75,92.910532 L 37.8125,92.973032 C 37.58683,93.133123 37.193966,93.390489 36.09375,94.254282 C 35.167448,94.983925 34.352295,95.434068 33.65625,95.598032 C 33.612568,95.608322 33.573351,95.59067 33.53125,95.598032 L 33.3125,95.473032 C 33.394509,95.199759 33.506074,95.030771 33.59375,94.910532 C 34.406037,93.653473 35.206069,92.375417 36.03125,91.129282 C 37.025887,89.609884 37.941464,88.450655 38.75,87.598032 C 39.111407,87.237319 40.253676,86.387893 42.21875,85.098032 C 44.252461,83.764466 45.732945,82.660024 46.625,81.785532 C 48.009847,80.430108 48.579509,79.203618 48.375,78.066782 C 48.317956,77.749802 48.179054,77.463531 47.90625,77.223032 C 47.642387,76.971639 47.348238,76.848053 47.03125,76.848032 C 47.00241,76.848032 46.966748,76.84684 46.9375,76.848032 C 46.926737,76.847738 46.917074,76.848033 46.90625,76.848032 C 46.828641,76.848033 46.741498,76.868658 46.65625,76.879282 C 46.614424,76.874791 46.573921,76.848035 46.53125,76.848032 C 46.502411,76.848032 46.466748,76.84684 46.4375,76.848032 C 46.426738,76.847738 46.417074,76.848033 46.40625,76.848032 z M 88.375,76.848032 C 88.271335,76.848034 88.171444,76.863881 88.0625,76.879282 C 86.953746,77.036018 85.561784,77.971317 83.90625,79.723032 C 82.605768,81.122211 81.155586,83.016661 79.53125,85.410532 C 78.67414,86.722258 77.794606,88.03632 76.9375,89.348032 C 76.538904,89.92738 75.973713,90.517154 75.1875,91.129282 C 74.490935,91.632111 73.779387,92.15771 73.09375,92.660532 L 73.03125,92.816782 L 73.25,93.035532 C 73.276559,93.019195 73.286335,92.989256 73.3125,92.973032 L 73.375,93.035532 C 73.462934,92.981441 73.510756,92.931477 73.59375,92.879282 L 73.75,93.035532 C 73.776561,93.019195 73.786335,92.989256 73.8125,92.973032 L 73.875,93.035532 C 74.059379,92.922116 74.180479,92.828765 74.34375,92.723032 C 74.178379,92.997241 73.927146,93.409809 73.90625,93.441782 C 73.59204,94.064849 73.464179,94.645233 73.5625,95.191782 C 73.666746,95.771207 73.991535,96.08488 74.46875,96.191782 C 74.605861,96.236189 74.765338,96.254282 74.9375,96.254282 C 75.008218,96.249111 75.086075,96.233633 75.15625,96.223032 C 75.248093,96.237743 75.334504,96.254282 75.4375,96.254282 C 75.569053,96.244663 75.679652,96.233228 75.84375,96.191782 C 76.493022,96.057826 77.430423,95.670796 78.65625,94.973032 C 79.790877,94.328304 80.493339,93.76659 80.78125,93.316782 C 80.774326,93.328501 80.720762,93.438254 80.71875,93.441782 C 80.40454,94.064849 80.307929,94.645233 80.40625,95.191782 C 80.510496,95.771207 80.787326,96.08488 81.25,96.191782 C 81.365587,96.230371 81.515226,96.249227 81.65625,96.254282 C 81.67751,96.255044 81.696912,96.254282 81.71875,96.254282 C 81.768775,96.254282 81.847279,96.231005 81.90625,96.223032 C 81.989312,96.237856 82.069842,96.251185 82.15625,96.254282 C 82.177512,96.255044 82.196912,96.254282 82.21875,96.254282 C 82.754371,96.254282 83.802167,95.79748 85.375,94.879282 C 85.836723,94.613726 86.212736,94.381776 86.53125,94.160532 C 86.534282,94.323037 86.534315,94.472618 86.5625,94.629282 C 86.742482,95.629673 87.432374,96.160375 88.625,96.254282 C 88.784724,96.271532 88.946005,96.285532 89.125,96.285532 C 89.165215,96.283138 89.208569,96.26181 89.25,96.254282 C 89.371284,96.26552 89.49058,96.285532 89.625,96.285532 C 89.734283,96.279026 89.847045,96.247863 89.96875,96.223032 C 90.918179,96.074701 92.297293,95.263073 94.0625,93.910532 C 94.044795,94.128749 94.054338,94.347708 94.09375,94.566782 C 94.282977,95.618558 94.843789,96.166334 95.75,96.254282 C 95.869197,96.272215 95.992463,96.285532 96.125,96.285532 C 96.165802,96.284024 96.208438,96.25668 96.25,96.254282 C 96.270151,96.253119 96.2922,96.2557 96.3125,96.254282 C 96.413212,96.267773 96.5144,96.285532 96.625,96.285532 C 96.866103,96.276619 97.121959,96.254493 97.375,96.191782 C 98.082785,96.03976 98.852237,95.675253 99.65625,95.098032 C 99.645069,95.239149 99.634569,95.383773 99.65625,95.504282 C 99.731013,95.919852 99.998939,96.150919 100.4375,96.223032 C 100.53188,96.247249 100.63585,96.248727 100.75,96.254282 C 100.78398,96.255936 100.80802,96.254282 100.84375,96.254282 C 100.86952,96.254282 100.90931,96.225147 100.9375,96.223032 C 100.95519,96.221705 100.98136,96.225192 101,96.223032 C 101.07876,96.236075 101.15845,96.249827 101.25,96.254282 C 101.28398,96.255936 101.30802,96.254282 101.34375,96.254282 C 101.87936,96.254282 102.9381,95.79748 104.5,94.879282 C 106.11262,93.939221 106.88568,93.263413 106.84375,92.848032 L 106.75,92.691782 C 106.74314,92.692659 106.67108,92.746937 106.65625,92.754282 L 106.625,92.691782 C 106.60545,92.694283 106.42885,92.793735 106.34375,92.848032 L 106.25,92.691782 C 106.24314,92.692659 106.17108,92.746937 106.15625,92.754282 L 106.125,92.691782 C 106.03951,92.702716 105.32558,93.206454 104,94.223032 C 103.04385,94.969071 102.22296,95.429969 101.5625,95.598032 C 101.52825,95.606748 101.50076,95.591502 101.46875,95.598032 L 101.25,95.473032 C 101.29135,95.156035 102.97791,92.604548 106.28125,87.816782 C 108.26023,84.963811 110.23779,82.127601 112.21875,79.285532 L 112.09375,79.285532 L 111.71875,79.285532 L 111.59375,79.285532 L 109.875,79.285532 L 109.53125,79.285532 L 109.375,79.285532 L 102.0625,89.910532 C 101.83552,89.65709 101.51969,89.482443 101.09375,89.410532 C 100.8954,89.367491 100.64946,89.348033 100.40625,89.348032 C 100.33246,89.348032 100.26043,89.374097 100.1875,89.379282 C 100.09037,89.372461 100.00593,89.348032 99.90625,89.348032 C 99.622625,89.348033 99.347875,89.390853 99.0625,89.441782 C 98.039062,89.624429 97.014711,90.135375 95.96875,90.973032 C 95.270352,91.525789 94.751704,92.056626 94.4375,92.629282 C 94.415635,92.629286 93.708701,93.14241 92.3125,94.191782 C 91.273549,94.978812 90.312611,95.463775 89.46875,95.660532 C 89.306147,95.698445 89.153924,95.707734 89,95.723032 C 88.989922,95.724034 88.978805,95.72212 88.96875,95.723032 C 88.678788,95.649247 88.490597,95.455666 88.4375,95.160532 C 88.295913,94.373504 88.70521,93.707087 89.65625,93.160532 C 90.552413,92.734228 91.445626,92.325909 92.34375,91.910532 C 93.302661,91.407712 93.742994,90.816398 93.625,90.160532 C 93.541146,89.694441 93.228143,89.463184 92.75,89.379282 C 92.614489,89.343755 92.484663,89.316784 92.3125,89.316782 C 92.212058,89.316783 92.102436,89.337524 92,89.348032 C 91.989876,89.346647 91.979103,89.349224 91.96875,89.348032 C 91.915505,89.3419 91.874479,89.316783 91.8125,89.316782 C 91.702102,89.316783 91.579342,89.338356 91.46875,89.348032 C 90.374819,89.443742 89.269202,89.993169 88.15625,91.035532 C 87.557758,91.597212 87.116325,92.166125 86.84375,92.723032 C 86.747888,92.765832 86.139854,93.229315 84.84375,94.223032 C 83.864485,94.97727 83.047899,95.427919 82.40625,95.598032 C 82.372972,95.606855 82.344621,95.591473 82.3125,95.598032 L 82.125,95.473032 C 82.105569,95.243483 82.731207,94.253238 83.96875,92.504282 C 84.728989,91.443983 85.487797,90.397407 86.25,89.348032 L 86.125,89.348032 L 85.75,89.348032 L 85.625,89.348032 L 84.28125,89.348032 L 83.90625,89.348032 L 83.78125,89.348032 C 82.810491,90.331825 81.513432,91.447198 79.90625,92.660532 L 79.8125,92.848032 L 79.84375,92.879282 C 79.65248,93.010624 79.217382,93.347568 78.0625,94.254282 C 77.136198,94.983925 76.352296,95.434068 75.65625,95.598032 C 75.612568,95.608322 75.573351,95.59067 75.53125,95.598032 L 75.3125,95.473032 C 75.394512,95.199759 75.474826,95.030771 75.5625,94.910532 C 76.37479,93.653473 77.174817,92.375417 78,91.129282 C 78.99464,89.609884 79.910216,88.450655 80.71875,87.598032 C 81.08016,87.237319 82.253674,86.387893 84.21875,85.098032 C 86.252464,83.764466 87.701693,82.660024 88.59375,81.785532 C 89.9786,80.430108 90.579507,79.203618 90.375,78.066782 C 90.317959,77.749802 90.147805,77.463531 89.875,77.223032 C 89.61114,76.971639 89.316986,76.848053 89,76.848032 C 88.969123,76.848033 88.937597,76.846665 88.90625,76.848032 C 88.896147,76.847773 88.88516,76.848033 88.875,76.848032 C 88.791865,76.848034 88.709899,76.867301 88.625,76.879282 C 88.605083,76.877143 88.582611,76.880402 88.5625,76.879282 C 88.540378,76.87805 88.522352,76.848033 88.5,76.848032 C 88.469121,76.848033 88.437597,76.846665 88.40625,76.848032 C 88.396145,76.847773 88.38516,76.848033 88.375,76.848032 z M 46.71875,77.316782 C 46.728007,77.319046 46.741031,77.314068 46.75,77.316782 C 47.075128,77.415167 47.272944,77.67328 47.34375,78.066782 C 47.552194,79.225482 46.373373,80.863373 43.8125,82.973032 C 43.269731,83.41942 41.687109,84.547677 39.4375,86.129282 C 40.891332,83.611754 41.929345,81.869065 42.40625,81.191782 C 43.992263,78.896294 45.378923,77.634983 46.53125,77.348032 C 46.596407,77.335886 46.657271,77.33015 46.71875,77.316782 z M 88.6875,77.316782 C 88.696757,77.319046 88.709781,77.314068 88.71875,77.316782 C 89.043879,77.415167 89.241696,77.67328 89.3125,78.066782 C 89.520944,79.225482 88.342124,80.863373 85.78125,82.973032 C 85.238481,83.41942 83.655858,84.547677 81.40625,86.129282 C 82.860085,83.611754 83.898094,81.869065 84.375,81.191782 C 85.961016,78.896294 87.347672,77.634983 88.5,77.348032 C 88.565159,77.335886 88.626022,77.33015 88.6875,77.316782 z M 54.28125,77.879282 C 54.616017,77.979102 54.825398,78.273699 54.90625,78.723032 C 55.091095,79.750559 53.91642,81.272705 51.34375,83.316782 C 49.688516,84.634298 48.206178,85.641609 46.875,86.379282 C 48.329028,84.032745 49.433054,82.364721 50.0625,81.535532 C 51.66648,79.393077 53.026783,78.178354 54.15625,77.910532 C 54.199381,77.902864 54.238825,77.889476 54.28125,77.879282 z M 87.1875,84.535532 C 86.773628,84.786956 86.500092,85.170193 86.375,85.629282 C 86.692175,86.0556 87.077639,86.387264 87.53125,86.660532 C 87.555635,86.642675 87.570366,86.615943 87.59375,86.598032 C 87.618725,86.613815 87.630848,86.645229 87.65625,86.660532 C 87.723919,86.610979 87.783468,86.554575 87.84375,86.504282 C 87.911196,86.549892 87.960487,86.617902 88.03125,86.660532 C 88.055637,86.642675 88.070366,86.615943 88.09375,86.598032 C 88.118727,86.613815 88.130848,86.645229 88.15625,86.660532 C 88.648831,86.29982 88.947045,85.918124 89.03125,85.535532 C 88.590995,85.032719 88.180854,84.699505 87.8125,84.535532 C 87.792604,84.54762 87.76923,84.554214 87.75,84.566782 C 87.730923,84.557482 87.70639,84.543941 87.6875,84.535532 C 87.629399,84.570828 87.583797,84.620195 87.53125,84.660532 C 87.462621,84.620274 87.378512,84.564917 87.3125,84.535532 C 87.292602,84.54762 87.26923,84.554214 87.25,84.566782 C 87.230921,84.557482 87.20639,84.543941 87.1875,84.535532 z M 100.53125,89.848032 C 100.59451,89.859387 100.66406,89.864299 100.71875,89.879282 C 101.10033,89.983811 101.33102,90.242426 101.40625,90.660532 C 101.57537,91.6006 100.94234,92.725364 99.5,94.004282 C 98.320793,95.053714 97.27484,95.666727 96.375,95.816782 C 96.332524,95.809547 96.291803,95.791593 96.25,95.785532 C 95.972337,95.711748 95.803102,95.549419 95.75,95.254282 C 95.612346,94.489116 96.230083,93.39406 97.625,91.973032 C 98.816219,90.759529 99.782751,90.030214 100.53125,89.848032 z M 28.9375,89.879282 C 29.035502,89.938001 29.096847,90.035306 29.125,90.191782 C 29.22536,90.749635 28.379432,91.36662 26.71875,92.035532 C 27.52068,90.826242 28.267678,90.090747 28.9375,89.879282 z M 50.65625,89.879282 C 50.755473,89.9392 50.816625,90.041025 50.84375,90.191782 C 50.94411,90.749635 50.098182,91.36662 48.4375,92.035532 C 49.245803,90.811956 49.981434,90.078903 50.65625,89.879282 z M 92.3125,89.879282 C 92.411947,89.939505 92.473089,90.042209 92.5,90.191782 C 92.599778,90.746398 91.741771,91.343226 90.09375,92.004282 C 90.898481,90.794558 91.640805,90.07725 92.3125,89.879282 z M 81.125,92.785532 C 81.053985,92.902693 80.947664,93.028849 80.90625,93.098032 C 80.930644,93.028848 80.936717,92.973827 80.9375,92.910532 C 81.009622,92.865851 81.056893,92.830117 81.125,92.785532 z "
       style="font-size:5.59665585px;line-height:125%;fill:#10238d;fill-opacity:1"
       id="text3268" />
  </g>
</svg>
